<svg width="466" height="157" viewBox="0 0 466 157" fill="none" xmlns="http://www.w3.org/2000/svg">
<path d="M157.456 156.991C173.661 156.991 186.798 143.865 186.798 127.673C186.798 111.48 173.661 98.3541 157.456 98.3541C141.252 98.3541 128.115 111.48 128.115 127.673C128.115 143.865 141.252 156.991 157.456 156.991Z" fill="#FF4D00"/>
<path d="M29.287 19.0823C13.1168 19.0823 0 32.1799 0 48.3466C0 64.5133 13.1168 77.6109 29.287 77.6109C45.4572 77.6109 58.5741 64.5042 58.5741 48.3466C58.5741 32.1889 45.4572 19.0823 29.287 19.0823Z" fill="#FF4D00"/>
<path d="M299.309 25.4966C293.499 20.1726 286.494 17.4624 278.295 17.4624C270.097 17.4624 263.092 20.1639 257.439 25.4966C251.786 30.8294 248.925 37.3462 248.925 44.9068C248.925 52.4674 251.795 59.2211 257.439 64.5539C263.092 69.8866 270.097 72.5881 278.295 72.5881C286.494 72.5881 293.499 69.8866 299.309 64.5539C305.12 59.1422 307.982 52.6253 307.982 44.9068C307.982 37.1884 305.12 30.8294 299.309 25.4966ZM290.874 57.5458C287.451 61.0455 283.237 62.7909 278.295 62.7909C273.353 62.7909 269.298 61.0455 265.875 57.5458C262.53 54.0462 260.863 49.8274 260.863 44.8981C260.863 39.9688 262.53 35.9078 265.875 32.4871C269.298 29.0664 273.441 27.321 278.295 27.321C283.15 27.321 287.451 29.0664 290.874 32.4871C294.297 35.9078 296.044 40.0389 296.044 44.8981C296.044 49.7572 294.297 54.0462 290.874 57.5458Z" fill="white"/>
<path d="M278.374 7.35825L283.623 13.2436H291.988L283.623 2.19214H273.116L264.681 13.2436H273.037L278.374 7.35825Z" fill="white"/>
<path d="M366.881 70.9918V19.0499H355.417V51.2658H355.338L328.829 19.0499H319.042V70.9918H330.506V38.8548H330.585L357.006 70.9918H366.881Z" fill="white"/>
<path d="M407.075 72.5004C415.993 72.5004 424.112 69.7989 431.433 64.3872V41.0827H405.091V50.4677H420.768V59.2123C417.345 61.5191 412.964 62.712 407.557 62.712C402.15 62.712 397.612 60.8788 394.347 57.3003C391.397 53.9585 389.888 49.9063 389.888 45.056C389.888 40.2056 391.476 35.9867 394.584 32.5661C397.849 29.0664 401.904 27.321 406.759 27.321C413.368 27.321 419.012 29.4699 423.788 33.8466L431.345 26.7684C423.621 20.5673 415.422 17.4624 406.671 17.4624C398.63 17.4624 391.863 20.1639 386.297 25.4966C380.803 30.8294 378.02 37.3462 378.02 44.9858C378.02 52.6253 380.803 59.1422 386.297 64.4749C391.871 69.8077 398.797 72.5092 407.075 72.5092V72.5004Z" fill="white"/>
<path d="M272.01 128.915H271.844L254.815 100.445H243.913V152.378H254.973V122.232H255.376L269.939 146.493H273.125L287.688 122.232H288.083V152.378H299.546V100.445H288.96L272.01 128.915Z" fill="white"/>
<path d="M308.456 83.6658L318.252 94.6383H327.802L319.84 83.6658H308.456Z" fill="white"/>
<path d="M326.529 100.445H315.145V152.378H326.529V100.445Z" fill="white"/>
<path d="M378.503 132.652H378.424L351.915 100.445H342.127V152.378H353.591V120.25H353.67L380.091 152.378H389.958V100.445H378.503V132.652Z" fill="white"/>
<path d="M441.536 100.445V119.688H417.019V100.445H405.556V152.378H417.019V129.31H441.536V152.378H453V100.445H441.536Z" fill="white"/>
<path d="M179.282 19.05H164.956L141.16 41.6441V19.05H129.696V70.9919H141.16V54.6866L149.516 46.8102L168.775 70.9919H183.188L157.636 39.3374L179.282 19.05Z" fill="white"/>
<path d="M226.322 38.3024H201.806V19.05H190.351V70.9919H201.806V47.9242H226.322V70.9919H237.786V19.05H226.322V38.3024Z" fill="white"/>
<path d="M188.727 107.444L191.114 116.426L203.298 110.944V152.378H214.595V100.445H204.334L188.727 107.444Z" fill="white"/>
<path d="M85.6661 19.1113H73.1401V79.2277H85.6661V19.1113Z" fill="white"/>
<path d="M19.4727 92.5073H6.94678V152.624H19.4727V92.5073Z" fill="white"/>
<path d="M40.0479 122.566V152.624H52.5738V122.566V92.5073H40.0479V122.566Z" fill="white"/>
<path d="M85.6661 92.5073H73.1401V152.624H85.6661V92.5073Z" fill="white"/>
</svg>
