<svg width="447" height="151" viewBox="0 0 447 151" fill="none" xmlns="http://www.w3.org/2000/svg">
<path d="M292.363 23.3047C286.552 17.9807 279.547 15.2705 271.349 15.2705C263.15 15.2705 256.145 17.972 250.493 23.3047C244.84 28.6375 241.978 35.1544 241.978 42.7149C241.978 50.2755 244.848 57.0292 250.493 62.362C256.145 67.6947 263.15 70.3962 271.349 70.3962C279.547 70.3962 286.552 67.6947 292.363 62.362C298.174 56.9503 301.035 50.4334 301.035 42.7149C301.035 34.9965 298.174 28.6375 292.363 23.3047ZM283.927 55.354C280.504 58.8536 276.291 60.599 271.349 60.599C266.407 60.599 262.351 58.8536 258.928 55.354C255.584 51.8543 253.916 47.6355 253.916 42.7062C253.916 37.7769 255.584 33.7159 258.928 30.2952C262.351 26.8745 266.494 25.1291 271.349 25.1291C276.203 25.1291 280.504 26.8745 283.927 30.2952C287.351 33.7159 289.097 37.847 289.097 42.7062C289.097 47.5653 287.351 51.8543 283.927 55.354Z" fill="white"/>
<path d="M271.427 5.16636L276.676 11.0517H285.042L276.676 0.000244141H266.169L257.734 11.0517H266.09L271.427 5.16636Z" fill="white"/>
<path d="M359.934 68.7999V16.858H348.47V49.0739H348.391L321.882 16.858H312.095V68.7999H323.559V36.6629H323.638L350.059 68.7999H359.934Z" fill="white"/>
<path d="M400.128 70.3085C409.046 70.3085 417.166 67.607 424.486 62.1953V38.8908H398.144V48.2758H413.821V57.0204C410.398 59.3272 406.018 60.5201 400.611 60.5201C395.203 60.5201 390.665 58.6869 387.4 55.1084C384.451 51.7666 382.941 47.7144 382.941 42.8641C382.941 38.0137 384.53 33.7948 387.637 30.3742C390.902 26.8745 394.958 25.1291 399.812 25.1291C406.421 25.1291 412.066 27.278 416.841 31.6547L424.398 24.5765C416.674 18.3754 408.475 15.2705 399.724 15.2705C391.684 15.2705 384.916 17.972 379.351 23.3047C373.856 28.6375 371.073 35.1544 371.073 42.7939C371.073 50.4334 373.856 56.9503 379.351 62.283C384.925 67.6158 391.85 70.3173 400.128 70.3173V70.3085Z" fill="white"/>
<path d="M265.064 126.724H264.897L247.868 98.2529H236.966V150.186H248.026V120.04H248.43L262.992 144.301H266.178L280.741 120.04H281.136V150.186H292.6V98.2529H282.014L265.064 126.724Z" fill="white"/>
<path d="M301.509 81.4739L311.305 92.4464H320.855L312.894 81.4739H301.509Z" fill="white"/>
<path d="M319.583 98.2529H308.198V150.186H319.583V98.2529Z" fill="white"/>
<path d="M371.556 130.46H371.477L344.968 98.2529H335.181V150.186H346.644V118.058H346.723L373.145 150.186H383.011V98.2529H371.556V130.46Z" fill="white"/>
<path d="M434.589 98.2529V117.496H410.073V98.2529H398.609V150.186H410.073V127.118H434.589V150.186H446.053V98.2529H434.589Z" fill="white"/>
<path d="M172.335 16.8582H158.009L134.213 39.4522V16.8582H122.749V68.8H134.213V52.4947L142.569 44.6183L161.828 68.8H176.241L150.689 37.1455L172.335 16.8582Z" fill="white"/>
<path d="M219.375 36.1105H194.859V16.8582H183.404V68.8H194.859V45.7323H219.375V68.8H230.839V16.8582H219.375V36.1105Z" fill="white"/>
<path d="M181.78 105.252L184.167 114.234L196.351 108.752V150.186H207.648V98.2531H197.387L181.78 105.252Z" fill="white"/>
<path d="M78.7193 16.9194H66.1934V77.0358H78.7193V16.9194Z" fill="white"/>
<path d="M12.5259 90.3154H0V150.432H12.5259V90.3154Z" fill="white"/>
<path d="M33.1011 120.374V150.432H45.627V120.374V90.3154H33.1011V120.374Z" fill="white"/>
<path d="M78.7193 90.3154H66.1934V150.432H78.7193V90.3154Z" fill="white"/>
</svg>
